<svg width="40" height="40" viewBox="0 0 40 40" fill="none" xmlns="http://www.w3.org/2000/svg">
<g clip-path="url(#clip0_125_1133)">
<path d="M20 3.60902C25.3535 3.60902 25.9596 3.60902 28.0808 3.70927C30 3.80952 31.1111 4.11028 31.8182 4.41103C32.7273 4.81203 33.4343 5.21303 34.1414 5.91479C34.8485 6.61654 35.2525 7.3183 35.6566 8.22055C35.9596 8.92231 36.2626 10.0251 36.3636 11.9298C36.4646 14.0351 36.4646 14.6366 36.4646 20.0501C36.4646 25.4637 36.4646 26.0652 36.3636 28.1704C36.2626 30.0752 35.9596 31.1779 35.6566 31.8797C35.2525 32.782 34.8485 33.4837 34.1414 34.1855C33.4343 34.8872 32.7273 35.2882 31.8182 35.6892C31.1111 35.99 30.101 36.2907 28.0808 36.391C25.9596 36.4912 25.3535 36.4912 20 36.4912C14.6465 36.4912 14.0404 36.4912 11.9192 36.391C10 36.2907 8.88889 35.99 8.18182 35.6892C7.27273 35.2882 6.56566 34.8872 5.85859 34.1855C5.15152 33.4837 4.74748 32.782 4.34343 31.8797C4.14141 31.0777 3.83838 30.0752 3.73737 28.0702C3.63636 25.9649 3.63636 25.3634 3.63636 19.9499C3.63636 14.5363 3.63636 13.9348 3.73737 11.8296C3.83838 9.92481 4.14141 8.82206 4.44444 8.1203C4.84849 7.21805 5.25253 6.51629 5.9596 5.81454C6.66667 5.11278 7.37374 4.71178 8.28283 4.31078C8.9899 4.01003 10 3.70927 12.0202 3.60902H20ZM20 0C14.5455 0 13.8384 0 11.7172 0.100251C9.59596 0.200501 8.08081 0.501253 6.86869 1.00251C5.55556 1.50376 4.44444 2.20551 3.33333 3.30827C2.22222 4.41103 1.51515 5.51378 1.0101 6.81704C0.505051 8.1203 0.20202 9.52381 0.10101 11.6291C0 13.9348 0 14.5363 0 20.0501C0 25.5639 0 26.1654 0.10101 28.2707C0.20202 30.3759 0.505051 31.8797 1.0101 33.0827C1.51515 34.386 2.22222 35.4887 3.33333 36.5915C4.44444 37.6942 5.55556 38.396 6.86869 38.8972C8.18182 39.3985 9.59596 39.6992 11.7172 39.7995C13.8384 39.8997 14.5455 39.8997 20 39.8997C25.4545 39.8997 26.1616 39.8997 28.2828 39.7995C30.404 39.6992 31.9192 39.3985 33.1313 38.8972C34.4444 38.396 35.5556 37.6942 36.6667 36.5915C37.7778 35.4887 38.4848 34.386 38.9899 33.0827C39.4949 31.7794 39.798 30.3759 39.899 28.2707C40 26.1654 40 25.4637 40 20.0501C40 14.6366 40 13.9348 39.899 11.8296C39.798 9.72431 39.4949 8.22055 38.9899 7.01754C38.4848 5.71429 37.7778 4.61153 36.6667 3.50877C35.5556 2.40601 34.4444 1.70426 33.1313 1.20301C31.8182 0.701754 30.404 0.401003 28.2828 0.300752C26.1616 0 25.4545 0 20 0ZM20 9.72431C14.3434 9.72431 9.69697 14.3358 9.69697 20.0501C9.69697 25.7644 14.3434 30.3759 20 30.3759C25.6566 30.3759 30.303 25.6642 30.303 20.0501C30.303 14.4361 25.6566 9.72431 20 9.72431ZM20 26.6667C16.3636 26.6667 13.3333 23.6591 13.3333 19.9499C13.3333 16.2406 16.3636 13.2331 20 13.2331C23.6364 13.2331 26.6667 16.2406 26.6667 19.9499C26.6667 23.6591 23.7374 26.6667 20 26.6667ZM33.1313 9.32331C33.1313 10.6266 32.0202 11.7293 30.7071 11.7293C29.3939 11.7293 28.2828 10.6266 28.2828 9.32331C28.2828 8.02005 29.3939 6.91729 30.7071 6.91729C32.0202 6.91729 33.1313 8.02005 33.1313 9.32331Z" fill="white"/>
</g>
<defs>
<clipPath id="clip0_125_1133">
<rect width="40" height="40" fill="white"/>
</clipPath>
</defs>
</svg>
